<svg xmlns="http://www.w3.org/2000/svg" viewBox="0 0 88 88"><title>Artboard-40</title><g id="Refresh_Dollar" data-name="Refresh Dollar"><path d="M44,24A20,20,0,1,0,64,44,20.0223,20.0223,0,0,0,44,24Zm0,38A18,18,0,1,1,62,44,18.0209,18.0209,0,0,1,44,62Z" style="fill:#202021"/><path d="M44,20A24,24,0,1,0,68,44,24.0275,24.0275,0,0,0,44,20Zm0,46A22,22,0,1,1,66,44,22.0248,22.0248,0,0,1,44,66Z" style="fill:#202021"/><path d="M47,32.2568V30a1,1,0,0,0-1-1H42a1,1,0,0,0-1,1v2.2568a6.8251,6.8251,0,0,0-1.6836,12.4307l6.2813,3.77A.8311.8311,0,0,1,45.1689,50H42.8311A.8323.8323,0,0,1,42,49.1689V48a1,1,0,0,0-1-1H37a1,1,0,0,0-1,1v1.1689a6.8326,6.8326,0,0,0,4.0977,6.253A6.7121,6.7121,0,0,0,41,55.7432V58a1,1,0,0,0,1,1h4a1,1,0,0,0,1-1V55.7432a6.8251,6.8251,0,0,0,1.6836-12.4307l-6.2813-3.77A.8311.8311,0,0,1,42.8311,38h2.3378A.8323.8323,0,0,1,46,38.8311V40a1,1,0,0,0,1,1h4a1,1,0,0,0,1-1V38.8311A6.8676,6.8676,0,0,0,47,32.2568ZM50,39H48v-.1689A2.8336,2.8336,0,0,0,45.1689,36H42.8311a2.8307,2.8307,0,0,0-1.4571,5.2578l6.2813,3.7695a4.8256,4.8256,0,0,1-1.7979,8.9161,1.0007,1.0007,0,0,0-.8574.99V57H43V54.9336a1,1,0,0,0-.8584-.99,4.7746,4.7746,0,0,1-1.2422-.3536A4.8307,4.8307,0,0,1,38,49.1689V49h2v.1689A2.8336,2.8336,0,0,0,42.8311,52h2.3378a2.8307,2.8307,0,0,0,1.4571-5.2578l-6.2813-3.7695A4.8526,4.8526,0,0,1,38,38.8311a4.8366,4.8366,0,0,1,4.1416-4.7745,1.0007,1.0007,0,0,0,.8584-.99V31h2v2.0664a1.0007,1.0007,0,0,0,.8574.99A4.8494,4.8494,0,0,1,50,38.8311Z" style="fill:#202021"/><path d="M80.0205,26.5654A1,1,0,0,0,79.12,26H74.59a1,1,0,0,0-.873,1.4873A33.98,33.98,0,1,1,65.9092,18H61a1,1,0,0,0-1,1v4a1,1,0,0,0,1,1H75a1,1,0,0,0,1-1V9a1,1,0,0,0-1-1H71a1,1,0,0,0-1,1v4.6016a39.8265,39.8265,0,1,0,10.02,12.9638ZM44,82A38,38,0,1,1,70.3066,16.5811,1,1,0,0,0,72,15.86V10h2V22H62V20h6.49a1,1,0,0,0,.7-1.7139A35.9862,35.9862,0,1,0,76.248,28h2.2383A38.0334,38.0334,0,0,1,44,82Z" style="fill:#202021"/></g></svg>