<?xml version="1.0" encoding="iso-8859-1"?>
<!-- Generator: Adobe Illustrator 19.0.0, SVG Export Plug-In . SVG Version: 6.00 Build 0)  -->
<svg xmlns="http://www.w3.org/2000/svg" xmlns:xlink="http://www.w3.org/1999/xlink" version="1.1" id="Layer_1" x="0px" y="0px" viewBox="0 0 511.999 511.999" style="enable-background:new 0 0 511.999 511.999;" xml:space="preserve">
<path style="fill:#4D5560;" d="M458.549,368.317c-1.636-29.797-21.327-54.875-49.168-62.387l-107.81-24.428l-65.821,45.402  l-65.821-45.402L62.119,305.93c-27.84,7.512-47.531,32.59-49.168,62.387l-4.579,88.017c-0.333,6.398,4.766,11.769,11.173,11.769  h215.235h0.969h0.969h215.235c6.407,0,11.506-5.371,11.173-11.769L458.549,368.317z"/>
<g>
	<path style="fill:#3F4651;" d="M235.748,326.902l-0.002,0.001l-0.056-0.04l-65.762-45.361l-31.699,7.183l-0.164,0.048   l44.717,56.959c1.614,2.055,4.416,2.752,6.804,1.693l46.162-20.481L235.748,326.902z"/>
	<path style="fill:#3F4651;" d="M235.757,326.902l0.002,0.001l0.056-0.04l65.762-45.361l31.699,7.183l0.164,0.048l-44.717,56.959   c-1.614,2.055-4.416,2.752-6.804,1.693l-46.161-20.481V326.902z"/>
</g>
<g>
	<polygon style="fill:#FC3F49;" points="235.765,326.903 235.765,326.9 235.762,326.901 235.761,326.9 235.761,326.903    210.614,338.054 223.244,369.414 248.282,369.414 260.877,338.05  "/>
	<polygon style="fill:#FC3F49;" points="248.285,369.414 235.765,369.414 223.244,369.414 207.392,468.105 265.162,468.105  "/>
</g>
<path style="fill:#F28F0C;" d="M269.338,22.734h-27.316c35.989,0,65.164,29.175,65.164,65.164v65.935h27.317V87.898  C334.502,51.909,305.327,22.734,269.338,22.734z"/>
<path style="fill:#FFC07B;" d="M319.013,122.065v48.443c10.921-0.72,19.543-8.806,19.543-18.727v-10.983  C338.555,130.877,329.934,122.784,319.013,122.065z"/>
<path style="fill:#FED9A8;" d="M152.486,122.065v48.443c-10.921-0.72-19.543-8.806-19.543-18.727v-10.983  C132.944,130.877,141.565,122.784,152.486,122.065z"/>
<path style="fill:#FE9901;" d="M269.338,22.734H202.58c-35.989,0-65.164,29.175-65.164,65.164v41.339  c3.564-4.053,8.955-6.768,15.07-7.172v0.043l0,0v-9.559c10.081-12.849,33.184-5.201,81.276-7.05  c36.179-1.391,51.546-20.535,57.85-39.475c4.297,1.658,20.941,10.521,20.941,48.397c0,4.42,2.941,6.651,6.772,7.677  c6.237,0.494,11.685,3.393,15.177,7.655V87.898C334.502,51.909,305.327,22.734,269.338,22.734z"/>
<g>
	<path id="SVGCleanerId_0" style="fill:#FED9A8;" d="M312.553,114.422c0-37.875-16.645-46.739-20.941-48.397   c-6.304,18.94-21.669,38.084-57.85,39.475c-48.092,1.849-71.195-5.799-81.276,7.05v69.553c0,16.353,6.474,31.976,17.885,43.158   l17.495,17.146c8.549,8.379,19.827,13.041,31.545,13.041h33.098c11.717,0,22.996-4.662,31.545-13.041l17.495-17.146   c11.411-11.183,17.885-26.806,17.885-43.158v-59.973C315.548,121.118,312.553,118.885,312.553,114.422z"/>
</g>
<g>
	<path id="SVGCleanerId_0_1_" style="fill:#FED9A8;" d="M312.553,114.422c0-37.875-16.645-46.739-20.941-48.397   c-6.304,18.94-21.669,38.084-57.85,39.475c-48.092,1.849-71.195-5.799-81.276,7.05v69.553c0,16.353,6.474,31.976,17.885,43.158   l17.495,17.146c8.549,8.379,19.827,13.041,31.545,13.041h33.098c11.717,0,22.996-4.662,31.545-13.041l17.495-17.146   c11.411-11.183,17.885-26.806,17.885-43.158v-59.973C315.548,121.118,312.553,118.885,312.553,114.422z"/>
</g>
<g>
	<path id="SVGCleanerId_0_2_" style="fill:#FED9A8;" d="M312.553,114.422c0-37.875-16.645-46.739-20.941-48.397   c-6.304,18.94-21.669,38.084-57.85,39.475c-48.092,1.849-71.195-5.799-81.276,7.05v69.553c0,16.353,6.474,31.976,17.885,43.158   l17.495,17.146c8.549,8.379,19.827,13.041,31.545,13.041h33.098c11.717,0,22.996-4.662,31.545-13.041l17.495-17.146   c11.411-11.183,17.885-26.806,17.885-43.158v-59.973C315.548,121.118,312.553,118.885,312.553,114.422z"/>
</g>
<g>
	<path style="fill:#FFC07B;" d="M233.762,117.575c39.963,0,59.405-25.932,67.134-44.636c-3.834-4.412-7.557-6.248-9.284-6.914   c-6.304,18.94-21.669,38.084-57.85,39.475c-48.092,1.849-71.195-5.799-81.276,7.05v12.076   C162.568,111.776,185.635,117.575,233.762,117.575z"/>
	<path style="fill:#FFC07B;" d="M312.553,114.422c0-36.537-15.486-46.075-20.438-48.191v115.872   c0,16.353-6.474,31.976-17.885,43.158l-17.495,17.146c-8.549,8.379-19.827,13.041-31.545,13.041h27.317   c11.717,0,22.996-4.662,31.545-13.041l17.495-17.146c11.411-11.183,17.885-26.806,17.885-43.158v-59.973   C315.548,121.118,312.553,118.885,312.553,114.422z"/>
</g>
<path style="fill:#F7C68B;" d="M147.816,158.863h4.67v-25.154h-4.67c-4.115,0-7.451,3.336-7.451,7.451v10.252  C140.365,155.527,143.701,158.863,147.816,158.863z"/>
<path style="fill:#F2AD5A;" d="M324.102,158.863h-4.67v-25.154h4.67c4.115,0,7.451,3.336,7.451,7.451v10.252  C331.553,155.527,328.217,158.863,324.102,158.863z"/>
<path style="fill:#FED9A8;" d="M275.258,249.173c-6.884,4.081-14.713,6.276-22.75,6.276H219.41c-8.191,0-16.163-2.285-23.143-6.519  l-3.043,28.62l-15.521,9.313l58.048,40.039l58.048-40.039l-15.521-9.313L275.258,249.173z"/>
<path style="fill:#F2C18B;" d="M216.279,255.337c-0.933-0.066-1.86-0.166-2.782-0.291c-0.098-0.013-0.197-0.023-0.295-0.038  c-0.891-0.127-1.777-0.284-2.658-0.465c-0.127-0.026-0.254-0.05-0.381-0.077c-0.857-0.184-1.707-0.394-2.551-0.628  c-0.145-0.04-0.29-0.079-0.433-0.12c-0.827-0.238-1.646-0.501-2.458-0.787c-0.155-0.055-0.31-0.109-0.465-0.166  c-0.8-0.291-1.591-0.605-2.375-0.942c-0.158-0.068-0.315-0.138-0.472-0.207c-0.776-0.344-1.543-0.709-2.301-1.096  c-0.154-0.079-0.306-0.162-0.46-0.242c-0.755-0.398-1.502-0.815-2.236-1.257c-0.053-0.032-0.109-0.059-0.162-0.091l-0.333,3.132  c5.769,7.395,29.457,31.752,81.22,14.937l0,0l-1.895-17.826c-0.002,0.001-0.003,0.002-0.006,0.003  c-0.773,0.458-1.562,0.885-2.358,1.295c-0.207,0.107-0.417,0.21-0.625,0.313c-0.651,0.322-1.307,0.628-1.971,0.919  c-0.178,0.078-0.355,0.16-0.535,0.236c-0.828,0.349-1.664,0.675-2.509,0.973c-0.143,0.05-0.287,0.094-0.431,0.143  c-0.709,0.242-1.424,0.466-2.144,0.672c-0.241,0.069-0.48,0.136-0.722,0.201c-0.732,0.196-1.468,0.374-2.209,0.533  c-0.14,0.03-0.279,0.066-0.419,0.095c-0.87,0.177-1.747,0.325-2.63,0.45c-0.224,0.031-0.448,0.056-0.672,0.084  c-0.685,0.087-1.374,0.157-2.064,0.212c-0.255,0.02-0.509,0.041-0.766,0.057c-0.894,0.055-1.791,0.091-2.691,0.091h-33.098  c-0.982,0-1.959-0.037-2.934-0.103C216.397,255.342,216.338,255.341,216.279,255.337z"/>
<path style="fill:#FFF4E9;" d="M235.75,224.616c13.373,0,24.611-7.609,27.812-17.91c0.927-2.984-1.343-6.009-4.468-6.009h-46.689  c-3.126,0-5.396,3.025-4.468,6.009C211.139,217.008,222.377,224.616,235.75,224.616z"/>
<g>
	<path style="fill:#3F4651;" d="M62.589,334.858l-17.052-21.807c-18.78,11.353-31.22,31.849-32.506,55.265l-4.578,88.017   c-0.333,6.398,4.766,11.769,11.173,11.769h62.442l2.971-62.715C86.245,379.949,78.279,354.921,62.589,334.858z"/>
	<path style="fill:#3F4651;" d="M408.886,334.858l17.052-21.807c18.78,11.353,31.22,31.849,32.506,55.265l4.578,88.017   c0.333,6.398-4.766,11.769-11.173,11.769h-62.442l-2.971-62.715C385.232,379.949,393.198,354.921,408.886,334.858z"/>
</g>
<polygon style="fill:#EA2F41;" points="249.919,378.972 248.285,369.414 235.765,369.414 223.244,369.414 221.709,378.972 "/>
<rect x="293.527" y="284.01" transform="matrix(-0.8232 0.5678 -0.5678 -0.8232 704.462 348.6364)" style="fill:#4D5560;" width="8.835" height="0.004"/>
<g>
	<polygon style="fill:#3F4651;" points="333.275,288.684 301.576,281.501 301.575,281.502 333.291,288.688  "/>
	<path style="fill:#3F4651;" d="M409.381,305.93l-76.09-17.242l-31.717-7.186l-7.272,5.016l34.701,7.863l50.969,11.549   c13.723,3.703,25.459,11.679,34.036,22.379l11.931-15.257l0.036-0.04C420.876,309.937,415.316,307.531,409.381,305.93z"/>
</g>
<path style="fill:#333A44;" d="M458.444,368.317c-1.286-23.416-13.726-43.914-32.506-55.265l-11.931,15.257  c8.823,11.008,14.302,24.898,15.132,40.008l5.19,99.788h17.518c6.407,0,11.506-5.371,11.173-11.769L458.444,368.317z"/>
<circle style="fill:#FC3F49;" cx="416.352" cy="401.978" r="87.284"/>
<path style="fill:#E80A4A;" d="M416.353,314.688c-5.013,0-9.92,0.446-14.701,1.257c41.204,6.992,72.589,42.836,72.589,86.032  s-31.384,79.039-72.589,86.033c4.781,0.811,9.688,1.257,14.701,1.257c48.209,0,87.29-39.081,87.29-87.29  C503.643,353.769,464.562,314.688,416.353,314.688z"/>
<g>
	<path style="fill:#232323;" d="M199.596,152.051v-6.193c0-4.269-3.46-7.729-7.729-7.729s-7.729,3.46-7.729,7.729v6.193   c0,4.269,3.46,7.729,7.729,7.729C196.135,159.78,199.596,156.319,199.596,152.051z"/>
	<path style="fill:#232323;" d="M279.633,159.78c4.269,0,7.729-3.46,7.729-7.729v-6.193c0-4.269-3.46-7.729-7.729-7.729   c-4.269,0-7.729,3.46-7.729,7.729v6.193C271.904,156.319,275.364,159.78,279.633,159.78z"/>
	<path style="fill:#232323;" d="M199.957,209.186c4.351,14.006,19.07,23.788,35.793,23.788c16.721,0,31.44-9.781,35.793-23.787   c1.217-3.915,0.489-8.228-1.948-11.538c-2.448-3.325-6.374-5.311-10.5-5.311h-46.689c-4.126,0-8.052,1.985-10.5,5.311   C199.468,200.959,198.74,205.273,199.957,209.186z M252.874,209.054c-3.697,4.361-10.135,7.205-17.124,7.205   c-6.989,0-13.425-2.844-17.124-7.205H252.874z"/>
	<path style="fill:#232323;" d="M460.585,358.626c-3.264-3.263-8.556-3.263-11.818,0l-31.532,31.533l-31.532-31.533   c-3.264-3.263-8.556-3.263-11.818,0c-3.264,3.265-3.264,8.556,0,11.819l31.532,31.532l-31.532,31.532   c-3.264,3.265-3.264,8.556,0,11.82c1.631,1.631,3.771,2.447,5.909,2.447c2.138,0,4.278-0.816,5.909-2.447l31.532-31.533   l31.532,31.533c1.631,1.631,3.771,2.447,5.909,2.447s4.278-0.816,5.909-2.447c3.264-3.265,3.264-8.556,0-11.82l-31.532-31.532   l31.532-31.532C463.85,367.181,463.85,361.891,460.585,358.626z"/>
	<path style="fill:#232323;" d="M433.483,307.898c-6.6-4.462-13.968-7.89-21.925-10.037c-0.109-0.029-0.22-0.057-0.33-0.081   l-76.08-17.24c-0.009-0.002-0.017-0.004-0.025-0.007l-31.699-7.183c-0.571-0.129-1.149-0.197-1.724-0.205   c-1.725-0.027-3.431,0.481-4.874,1.476l-3.344,2.307l-7.336-4.403l-2.043-19.204c2.025-1.5,3.965-3.147,5.799-4.945l17.495-17.146   c12.959-12.7,20.392-30.607,20.392-49.128v-4.92c11.197-3.892,19.124-13.898,19.124-25.404v-10.982   c0-4.964-1.479-9.645-4.054-13.682V87.898c0-40.54-32.981-73.521-73.521-73.521h-66.757c-40.54,0-73.521,32.981-73.521,73.521   v38.582c-2.834,4.175-4.473,9.091-4.473,14.318v10.982c0,11.649,8.128,21.754,19.543,25.54v4.784   c0,18.521,7.432,36.427,20.392,49.128l17.494,17.146c1.716,1.683,3.529,3.225,5.412,4.647l-2.074,19.503l-7.336,4.403l-3.344-2.307   c-0.416-0.286-0.856-0.525-1.309-0.729c-0.071-0.032-0.139-0.071-0.211-0.101c-0.013-0.006-0.028-0.009-0.042-0.014   c-1.538-0.633-3.242-0.793-4.894-0.449c-0.046,0.009-0.09,0.013-0.136,0.023l-9.313,2.111l-98.497,22.316   c-0.111,0.025-0.221,0.052-0.33,0.081c-31.262,8.435-53.499,36.565-55.336,69.998c-0.021,0.383-0.007,0.759,0.023,1.131   l-1.094,21.025c-0.24,4.61,3.302,8.54,7.912,8.781c4.613,0.247,8.541-3.303,8.78-7.913l1.15-22.108   c0.974-17.737,9.222-33.835,22.437-44.362l12.193,15.593c14.449,18.478,21.796,41.557,20.685,64.988l-2.594,54.753H19.628   c-1.059,0-1.741-0.553-2.054-0.883c-0.313-0.329-0.829-1.04-0.774-2.096l1.59-30.577c0.24-4.61-3.303-8.54-7.912-8.781   c-4.613-0.253-8.54,3.303-8.78,7.913L0.165,454.8c-0.067,0.36-0.119,0.724-0.139,1.1c-0.277,5.328,1.67,10.604,5.344,14.473   c3.673,3.87,8.84,6.089,14.175,6.089h0.082h62.441h125.323h57.769h91.286l0,0c16.407,13.222,37.243,21.162,59.907,21.162   c52.739,0,95.646-42.908,95.646-95.647C512,355.087,478.073,315.998,433.483,307.898z M420.893,306.447   c-1.505-0.07-3.018-0.115-4.54-0.115c-1.444,0-2.878,0.046-4.307,0.109c1.429-0.065,2.863-0.109,4.307-0.109   C417.877,306.331,419.389,306.373,420.893,306.447z M429.353,307.238c-0.087-0.012-0.174-0.021-0.26-0.033   C429.18,307.217,429.267,307.226,429.353,307.238z M425.202,306.755c-0.422-0.039-0.848-0.064-1.273-0.097   C424.353,306.693,424.78,306.716,425.202,306.755z M242.631,361.057h-13.743l-7.505-18.637l14.371-6.375l14.362,6.373   L242.631,361.057z M207.227,330.415c-0.003,0.001-0.007,0.003-0.011,0.006l-19.132,8.489l-35.294-44.956l15.41-3.491l4.756,3.281   l0,0l45.769,31.57l-8.462,3.755L207.227,330.415z M262.481,329.618l-9.701-4.307l50.522-34.848l15.41,3.491l-35.293,44.954   L262.481,329.618z M330.198,151.779c0,2.24-0.897,4.331-2.409,6.048V134.78c0.08,0.091,0.171,0.175,0.248,0.27   c0.031,0.038,0.068,0.07,0.099,0.108c1.3,1.636,2.061,3.575,2.061,5.638V151.779z M145.774,87.898   c0-31.322,25.483-56.807,56.807-56.807h66.757c31.323,0,56.807,25.483,56.807,56.807v26.975c-1.685-0.482-3.434-0.832-5.235-1.027   c-0.164-38.29-16.579-50.912-24.225-54.705c-0.791-0.392-1.488-0.691-2.064-0.913c-2.131-0.822-4.505-0.738-6.573,0.237   c-2.066,0.975-3.644,2.753-4.365,4.921c-7.122,21.396-24.025,32.756-50.24,33.764c-4.712,0.182-9.395,0.274-14.24,0.292   c-0.571,0.002-1.133,0.008-1.708,0.008c-9.194,0-17.276-0.284-24.407-0.534c-5.018-0.177-9.436-0.332-13.511-0.369   c-0.582-0.006-1.157-0.008-1.726-0.008c-9.917,0-20.918,0.642-28.776,7.512c-1.122,0.982-2.181,2.089-3.164,3.342   c-0.047,0.059-0.092,0.118-0.137,0.179L145.774,87.898L145.774,87.898z M141.301,151.779v-10.982c0-2.291,0.938-4.427,2.512-6.165   c0.101-0.111,0.211-0.216,0.316-0.324v23.983C142.359,156.495,141.301,154.222,141.301,151.779z M311.075,173.11v8.992   c0,14.058-5.605,27.613-15.376,37.19l-17.495,17.146c-2.183,2.139-4.572,3.979-7.115,5.499c-0.03,0.018-0.062,0.029-0.092,0.047   c-0.699,0.415-1.409,0.803-2.129,1.169c-0.013,0.007-0.027,0.013-0.04,0.02c-3.6,1.82-7.457,3.024-11.407,3.574   c-0.092,0.012-0.186,0.022-0.279,0.035c-0.634,0.084-1.27,0.146-1.908,0.195c-0.173,0.013-0.345,0.028-0.519,0.039   c-0.733,0.046-1.469,0.075-2.205,0.075h-33.098h-0.002c-0.748,0-1.495-0.031-2.24-0.078c-0.172-0.011-0.342-0.025-0.513-0.038   c-0.679-0.052-1.357-0.12-2.031-0.212c-0.058-0.008-0.116-0.013-0.174-0.022c-4.856-0.683-9.571-2.362-13.849-4.958   c-0.031-0.019-0.065-0.031-0.095-0.05c-2.421-1.481-4.702-3.247-6.792-5.295l-17.494-17.146   c-9.773-9.576-15.376-23.132-15.376-37.19v-11.596v-48.399v-0.043v-6.034c2.553-1.747,7.112-2.777,17.007-2.777   c4.256,0,9.072,0.169,14.648,0.366c7.268,0.255,15.507,0.545,24.996,0.545c5.682,0,11.109-0.103,16.59-0.313   c34.905-1.342,52.354-17.878,61.059-34.712c4.287,5.332,9.053,15.671,9.053,35.284c0,0.613,0.042,1.209,0.103,1.799   c0.017,0.164,0.038,0.325,0.059,0.488c0.064,0.479,0.146,0.949,0.25,1.411c0.025,0.11,0.042,0.223,0.069,0.332   c0.134,0.539,0.298,1.063,0.485,1.577c0.056,0.153,0.12,0.302,0.181,0.452c0.155,0.384,0.325,0.761,0.51,1.129   c0.075,0.147,0.144,0.296,0.223,0.441c0.253,0.462,0.527,0.912,0.828,1.345c0.087,0.125,0.184,0.242,0.274,0.364   c0.243,0.326,0.498,0.645,0.768,0.953c0.124,0.142,0.247,0.282,0.377,0.419c0.354,0.374,0.723,0.739,1.119,1.082   c0.085,0.074,0.175,0.143,0.262,0.215c0.306,0.255,0.622,0.505,0.952,0.741 M197.524,284.715c2.249-1.348,3.733-3.675,4.01-6.283   l1.822-17.137c3.031,0.968,6.15,1.66,9.328,2.067c0.319,0.041,0.639,0.082,0.958,0.118c0.386,0.042,0.772,0.08,1.159,0.114   c0.459,0.04,0.92,0.074,1.381,0.101c0.296,0.018,0.592,0.039,0.888,0.052c0.778,0.035,1.558,0.058,2.339,0.058l0,0h33.098   c0.776,0,1.549-0.022,2.322-0.057c0.285-0.012,0.571-0.032,0.855-0.049c0.469-0.029,0.938-0.062,1.406-0.104   c0.364-0.031,0.729-0.065,1.092-0.105c0.341-0.037,0.682-0.082,1.022-0.126c1.697-0.216,3.376-0.514,5.034-0.893   c0.041-0.009,0.082-0.018,0.124-0.028c1.277-0.294,2.543-0.628,3.792-1.016l1.809,17.004c0.277,2.607,1.763,4.934,4.01,6.283   l4.394,2.636l-42.619,29.398l-42.619-29.398L197.524,284.715z M69.174,329.71l-10.76-13.761c1.861-0.73,3.766-1.374,5.724-1.909   l70.612-16l41.461,52.81c2.683,3.42,6.717,5.382,11.065,5.382l0,0c1.975,0,3.892-0.407,5.702-1.209l13.118-5.82l8.529,21.178   l-14.353,89.366H90.831l2.556-53.963C94.687,378.358,86.088,351.34,69.174,329.71z M217.199,459.747l13.167-81.976h10.869   l4.108,24.025c0.778,4.55,5.096,7.612,9.647,6.828c4.55-0.778,7.607-5.097,6.829-9.647l-4.9-28.647l8.486-21.128l13.124,5.823   c1.807,0.801,3.725,1.208,5.7,1.208c4.348,0,8.382-1.962,11.065-5.381l41.46-52.808l53.139,12.04   c-39.906,11.509-69.188,48.334-69.188,91.894c0,21.69,7.269,41.707,19.483,57.77H272.21l-4.292-25.101   c-0.778-4.55-5.094-7.609-9.647-6.828c-4.55,0.778-7.607,5.097-6.829,9.647l3.81,22.283h-38.054V459.747z M410.659,306.516   c-0.997,0.059-1.989,0.138-2.979,0.227C408.669,306.652,409.662,306.575,410.659,306.516z M406.192,306.877   c-1.191,0.126-2.373,0.283-3.551,0.452C403.818,307.157,405.002,307.004,406.192,306.877z M400.166,307.729   c-0.403,0.069-0.807,0.143-1.209,0.216C399.359,307.871,399.761,307.798,400.166,307.729z M347.104,467.849   c0.284,0.299,0.565,0.599,0.854,0.895C347.669,468.449,347.389,468.148,347.104,467.849z M340.199,459.76   c0.606,0.798,1.226,1.583,1.856,2.361C341.425,461.344,340.805,460.557,340.199,459.76z M343.471,463.816   c0.333,0.391,0.67,0.778,1.008,1.164C344.14,464.593,343.803,464.207,343.471,463.816z M353.747,474.194   c0.222,0.193,0.444,0.387,0.667,0.578C354.19,474.582,353.97,474.387,353.747,474.194z M349.693,470.474   c0.244,0.237,0.492,0.469,0.738,0.704C350.184,470.943,349.936,470.711,349.693,470.474z M416.353,480.909   c-43.523,0-78.931-35.408-78.931-78.932c0-43.523,35.408-78.931,78.931-78.931s78.931,35.408,78.931,78.931   C495.286,445.501,459.876,480.909,416.353,480.909z"/>
</g>
<g>
</g>
<g>
</g>
<g>
</g>
<g>
</g>
<g>
</g>
<g>
</g>
<g>
</g>
<g>
</g>
<g>
</g>
<g>
</g>
<g>
</g>
<g>
</g>
<g>
</g>
<g>
</g>
<g>
</g>
</svg>
