<?xml version="1.0" encoding="utf-8"?>
<!-- Generator: Adobe Illustrator 21.0.0, SVG Export Plug-In . SVG Version: 6.00 Build 0)  -->
<svg version="1.1" id="Layer_1" xmlns="http://www.w3.org/2000/svg" xmlns:xlink="http://www.w3.org/1999/xlink" x="0px" y="0px"
	 viewBox="0 0 512 512" style="enable-background:new 0 0 512 512;" xml:space="preserve">
<style type="text/css">
	.st0{fill:#E85558;}
	.st1{fill:#FBC749;}
	.st2{fill:#FFFFFF;}
	.st3{fill:#75B4E2;}
	.st4{fill:#18171D;}
</style>
<g id="Free_Access__Open_Content">
	<g>
		<rect x="113.2" y="124.1" class="st0" width="4" height="4"/>
		<path class="st1" d="M78.3,259.1h6.2l0-96.1l360.5,0l0,238.3l-360.5,0l0-96h-6.2v90.4c0,6.5,5.3,11.8,11.8,11.8h349.2
			c6.5,0,11.8-5.3,11.8-11.8V156.9H78.3V259.1z"/>
		<path class="st0" d="M433.7,389.3l0-214.1l-180.8,24.7v164.8L433.7,389.3z M267.8,264.7h11.3v34.9h-11.3V264.7z"/>
		<polygon class="st2" points="95.7,259.1 119.4,259.1 119.4,236.8 187.6,282.2 119.4,327.6 119.4,305.3 95.7,305.3 95.7,390.1 
			356.4,390.1 241.6,374.4 241.6,190 356.3,174.3 95.7,174.3 		"/>
		<polygon class="st3" points="130.7,306.6 167.3,282.2 130.7,257.8 130.7,270.4 60.8,270.4 60.8,294 130.7,294 		"/>
		<path class="st3" d="M439.3,104.5H90.1c-6.5,0-11.8,5.3-11.8,11.8v29.3h372.9v-29.3C451.2,109.8,445.9,104.5,439.3,104.5z
			 M128.5,139.4h-26.5v-26.5h26.5V139.4z M163.4,139.4h-26.5v-26.5h26.5V139.4z M198.3,139.4h-26.5v-26.5h26.5V139.4z"/>
		<rect x="183.1" y="124.1" class="st0" width="4" height="4"/>
		<rect x="148.1" y="124.1" class="st0" width="4" height="4"/>
		<path class="st4" d="M439.3,93.2H90.1c-12.7,0-23.1,10.4-23.1,23.1v142.8H49.6v46.2H67v90.4c0,12.7,10.4,23.1,23.1,23.1h349.2
			c12.7,0,23.1-10.4,23.1-23.1V116.3C462.4,103.6,452.1,93.2,439.3,93.2z M60.8,294v-23.7h69.8v-12.6l36.6,24.4l-36.6,24.4V294H60.8
			z M241.6,190v184.4l114.8,15.7l-260.7,0l0-84.8h23.7v22.3l68.2-45.4l-68.2-45.4v22.4H95.7l0-84.8l260.6,0L241.6,190z M433.7,175.1
			l0,214.1l-180.8-24.7V199.8L433.7,175.1z M451.2,395.7c0,6.5-5.3,11.8-11.8,11.8H90.1c-6.5,0-11.8-5.3-11.8-11.8v-90.4h6.2l0,96
			l360.5,0l0-238.3l-360.5,0l0,96.1h-6.2V156.9h372.9V395.7z M451.2,145.6H78.3v-29.3c0-6.5,5.3-11.8,11.8-11.8h349.2
			c6.5,0,11.8,5.3,11.8,11.8V145.6z"/>
		<path class="st4" d="M101.9,139.4h26.5v-26.5h-26.5V139.4z M113.2,124.1h4v4h-4V124.1z"/>
		<path class="st4" d="M136.9,139.4h26.5v-26.5h-26.5V139.4z M148.1,124.1h4v4h-4V124.1z"/>
		<path class="st4" d="M171.8,139.4h26.5v-26.5h-26.5V139.4z M183.1,124.1h4v4h-4V124.1z"/>
		<rect x="267.8" y="264.7" class="st4" width="11.3" height="34.9"/>
	</g>
</g>
</svg>
